<svg width="182" height="60" viewBox="0 0 182 60" fill="none" xmlns="http://www.w3.org/2000/svg">
<rect x="0.5" y="0.5" width="181" height="59" rx="9.5" stroke="#F39C11"/>
<g clip-path="url(#clip0_1_90)">
<path d="M30.5 41C30.5 41.3956 30.3827 41.7822 30.1629 42.1111C29.9432 42.44 29.6308 42.6964 29.2654 42.8478C28.8999 42.9991 28.4978 43.0387 28.1098 42.9616C27.7219 42.8844 27.3655 42.6939 27.0858 42.4142C26.8061 42.1345 26.6156 41.7781 26.5384 41.3902C26.4613 41.0022 26.5009 40.6001 26.6522 40.2346C26.8036 39.8692 27.06 39.5568 27.3889 39.3371C27.7178 39.1173 28.1044 39 28.5 39C29.0304 39 29.5391 39.2107 29.9142 39.5858C30.2893 39.9609 30.5 40.4696 30.5 41ZM41.5 39C41.1044 39 40.7178 39.1173 40.3889 39.3371C40.06 39.5568 39.8036 39.8692 39.6522 40.2346C39.5009 40.6001 39.4613 41.0022 39.5384 41.3902C39.6156 41.7781 39.8061 42.1345 40.0858 42.4142C40.3655 42.6939 40.7219 42.8844 41.1098 42.9616C41.4978 43.0387 41.8999 42.9991 42.2654 42.8478C42.6308 42.6964 42.9432 42.44 43.1629 42.1111C43.3827 41.7822 43.5 41.3956 43.5 41C43.5 40.4696 43.2893 39.9609 42.9142 39.5858C42.5391 39.2107 42.0304 39 41.5 39ZM47.4562 23.2937L43.89 34.8825C43.7032 35.4968 43.3234 36.0346 42.8068 36.416C42.2903 36.7975 41.6646 37.0022 41.0225 37H29.0087C28.3575 36.9976 27.7245 36.7842 27.2046 36.3919C26.6848 35.9996 26.306 35.4494 26.125 34.8237L21.6025 19H19.5C19.2348 19 18.9804 18.8946 18.7929 18.7071C18.6054 18.5196 18.5 18.2652 18.5 18C18.5 17.7348 18.6054 17.4804 18.7929 17.2929C18.9804 17.1054 19.2348 17 19.5 17H21.6025C22.0368 17.0014 22.4589 17.1435 22.8057 17.4049C23.1525 17.6663 23.4053 18.0329 23.5262 18.45L24.54 22H46.5C46.6565 21.9999 46.8108 22.0366 46.9505 22.1071C47.0903 22.1775 47.2115 22.2798 47.3045 22.4056C47.3976 22.5315 47.4597 22.6774 47.4861 22.8316C47.5124 22.9859 47.5022 23.1442 47.4562 23.2937ZM45.1462 24H25.1112L28.0475 34.275C28.1072 34.4839 28.2334 34.6676 28.4068 34.7984C28.5802 34.9292 28.7915 35 29.0087 35H41.0225C41.2365 35.0001 41.4448 34.9315 41.617 34.8044C41.7891 34.6773 41.9159 34.4983 41.9788 34.2938L45.1462 24Z" fill="#F39C11"/>
</g>
<path d="M61.3 37C61.1933 37 61.1 36.96 61.02 36.88C60.94 36.8 60.9 36.7067 60.9 36.6C60.9 36.5333 60.9067 36.46 60.92 36.38L65.88 23.44C65.9333 23.3067 66.0067 23.2 66.1 23.12C66.1933 23.04 66.3333 23 66.52 23H67.88C68.0533 23 68.1867 23.04 68.28 23.12C68.3867 23.2 68.4667 23.3067 68.52 23.44L73.46 36.38C73.4867 36.46 73.5 36.5333 73.5 36.6C73.5 36.7067 73.46 36.8 73.38 36.88C73.3 36.96 73.2067 37 73.1 37H72.08C71.92 37 71.8 36.96 71.72 36.88C71.6533 36.8 71.6067 36.7267 71.58 36.66L70.48 33.82H63.92L62.82 36.66C62.8067 36.7267 62.76 36.8 62.68 36.88C62.6 36.96 62.48 37 62.32 37H61.3ZM64.5 32.1H69.9L67.2 25L64.5 32.1ZM78.7279 37.2C77.9946 37.2 77.3613 37.0733 76.8279 36.82C76.2946 36.5533 75.8546 36.2 75.5079 35.76C75.1746 35.3067 74.9213 34.7933 74.7479 34.22C74.5879 33.6467 74.4946 33.04 74.4679 32.4C74.4546 32.1867 74.4479 31.9867 74.4479 31.8C74.4479 31.6133 74.4546 31.4133 74.4679 31.2C74.4946 30.5733 74.5879 29.9733 74.7479 29.4C74.9213 28.8267 75.1746 28.3133 75.5079 27.86C75.8546 27.4067 76.2946 27.0533 76.8279 26.8C77.3613 26.5333 77.9946 26.4 78.7279 26.4C79.5146 26.4 80.1679 26.54 80.6879 26.82C81.2079 27.1 81.6346 27.4467 81.9679 27.86V23.26C81.9679 23.1267 82.0079 23.02 82.0879 22.94C82.1813 22.8467 82.2946 22.8 82.4279 22.8H83.3879C83.5213 22.8 83.6279 22.8467 83.7079 22.94C83.8013 23.02 83.8479 23.1267 83.8479 23.26V36.54C83.8479 36.6733 83.8013 36.7867 83.7079 36.88C83.6279 36.96 83.5213 37 83.3879 37H82.4879C82.3413 37 82.2279 36.96 82.1479 36.88C82.0679 36.7867 82.0279 36.6733 82.0279 36.54V35.7C81.6946 36.1267 81.2613 36.4867 80.7279 36.78C80.1946 37.06 79.5279 37.2 78.7279 37.2ZM79.1479 35.58C79.8146 35.58 80.3479 35.4267 80.7479 35.12C81.1479 34.8133 81.4479 34.4267 81.6479 33.96C81.8479 33.48 81.9546 32.9933 81.9679 32.5C81.9813 32.2867 81.9879 32.0333 81.9879 31.74C81.9879 31.4333 81.9813 31.1733 81.9679 30.96C81.9546 30.4933 81.8413 30.0333 81.6279 29.58C81.4279 29.1267 81.1213 28.7533 80.7079 28.46C80.3079 28.1667 79.7879 28.02 79.1479 28.02C78.4679 28.02 77.9279 28.1733 77.5279 28.48C77.1279 28.7733 76.8413 29.1667 76.6679 29.66C76.4946 30.14 76.3946 30.66 76.3679 31.22C76.3546 31.6067 76.3546 31.9933 76.3679 32.38C76.3946 32.94 76.4946 33.4667 76.6679 33.96C76.8413 34.44 77.1279 34.8333 77.5279 35.14C77.9279 35.4333 78.4679 35.58 79.1479 35.58ZM90.2891 37.2C89.5558 37.2 88.9224 37.0733 88.3891 36.82C87.8558 36.5533 87.4158 36.2 87.0691 35.76C86.7358 35.3067 86.4824 34.7933 86.3091 34.22C86.1491 33.6467 86.0558 33.04 86.0291 32.4C86.0158 32.1867 86.0091 31.9867 86.0091 31.8C86.0091 31.6133 86.0158 31.4133 86.0291 31.2C86.0558 30.5733 86.1491 29.9733 86.3091 29.4C86.4824 28.8267 86.7358 28.3133 87.0691 27.86C87.4158 27.4067 87.8558 27.0533 88.3891 26.8C88.9224 26.5333 89.5558 26.4 90.2891 26.4C91.0758 26.4 91.7291 26.54 92.2491 26.82C92.7691 27.1 93.1958 27.4467 93.5291 27.86V23.26C93.5291 23.1267 93.5691 23.02 93.6491 22.94C93.7424 22.8467 93.8558 22.8 93.9891 22.8H94.9491C95.0824 22.8 95.1891 22.8467 95.2691 22.94C95.3624 23.02 95.4091 23.1267 95.4091 23.26V36.54C95.4091 36.6733 95.3624 36.7867 95.2691 36.88C95.1891 36.96 95.0824 37 94.9491 37H94.0491C93.9024 37 93.7891 36.96 93.7091 36.88C93.6291 36.7867 93.5891 36.6733 93.5891 36.54V35.7C93.2558 36.1267 92.8224 36.4867 92.2891 36.78C91.7558 37.06 91.0891 37.2 90.2891 37.2ZM90.7091 35.58C91.3758 35.58 91.9091 35.4267 92.3091 35.12C92.7091 34.8133 93.0091 34.4267 93.2091 33.96C93.4091 33.48 93.5158 32.9933 93.5291 32.5C93.5424 32.2867 93.5491 32.0333 93.5491 31.74C93.5491 31.4333 93.5424 31.1733 93.5291 30.96C93.5158 30.4933 93.4024 30.0333 93.1891 29.58C92.9891 29.1267 92.6824 28.7533 92.2691 28.46C91.8691 28.1667 91.3491 28.02 90.7091 28.02C90.0291 28.02 89.4891 28.1733 89.0891 28.48C88.6891 28.7733 88.4024 29.1667 88.2291 29.66C88.0558 30.14 87.9558 30.66 87.9291 31.22C87.9158 31.6067 87.9158 31.9933 87.9291 32.38C87.9558 32.94 88.0558 33.4667 88.2291 33.96C88.4024 34.44 88.6891 34.8333 89.0891 35.14C89.4891 35.4333 90.0291 35.58 90.7091 35.58ZM106.25 37C105.503 37 104.896 36.86 104.43 36.58C103.963 36.2867 103.623 35.88 103.41 35.36C103.196 34.8267 103.09 34.2 103.09 33.48V28.2H101.53C101.396 28.2 101.283 28.16 101.19 28.08C101.11 27.9867 101.07 27.8733 101.07 27.74V27.06C101.07 26.9267 101.11 26.82 101.19 26.74C101.283 26.6467 101.396 26.6 101.53 26.6H103.09V23.26C103.09 23.1267 103.13 23.02 103.21 22.94C103.303 22.8467 103.416 22.8 103.55 22.8H104.49C104.623 22.8 104.73 22.8467 104.81 22.94C104.903 23.02 104.95 23.1267 104.95 23.26V26.6H107.43C107.563 26.6 107.67 26.6467 107.75 26.74C107.843 26.82 107.89 26.9267 107.89 27.06V27.74C107.89 27.8733 107.843 27.9867 107.75 28.08C107.67 28.16 107.563 28.2 107.43 28.2H104.95V33.34C104.95 33.9667 105.056 34.46 105.27 34.82C105.483 35.18 105.863 35.36 106.41 35.36H107.63C107.763 35.36 107.87 35.4067 107.95 35.5C108.043 35.58 108.09 35.6867 108.09 35.82V36.54C108.09 36.6733 108.043 36.7867 107.95 36.88C107.87 36.96 107.763 37 107.63 37H106.25ZM113.929 37.2C112.915 37.2 112.069 37.0067 111.389 36.62C110.709 36.2333 110.189 35.7 109.829 35.02C109.469 34.3267 109.269 33.54 109.229 32.66C109.215 32.4333 109.209 32.1467 109.209 31.8C109.209 31.44 109.215 31.1533 109.229 30.94C109.269 30.0467 109.469 29.26 109.829 28.58C110.202 27.9 110.729 27.3667 111.409 26.98C112.089 26.5933 112.929 26.4 113.929 26.4C114.929 26.4 115.769 26.5933 116.449 26.98C117.129 27.3667 117.649 27.9 118.009 28.58C118.382 29.26 118.589 30.0467 118.629 30.94C118.642 31.1533 118.649 31.44 118.649 31.8C118.649 32.1467 118.642 32.4333 118.629 32.66C118.589 33.54 118.389 34.3267 118.029 35.02C117.669 35.7 117.149 36.2333 116.469 36.62C115.789 37.0067 114.942 37.2 113.929 37.2ZM113.929 35.66C114.755 35.66 115.415 35.4 115.909 34.88C116.402 34.3467 116.669 33.5733 116.709 32.56C116.722 32.36 116.729 32.1067 116.729 31.8C116.729 31.4933 116.722 31.24 116.709 31.04C116.669 30.0267 116.402 29.26 115.909 28.74C115.415 28.2067 114.755 27.94 113.929 27.94C113.102 27.94 112.435 28.2067 111.929 28.74C111.435 29.26 111.175 30.0267 111.149 31.04C111.135 31.24 111.129 31.4933 111.129 31.8C111.129 32.1067 111.135 32.36 111.149 32.56C111.175 33.5733 111.435 34.3467 111.929 34.88C112.435 35.4 113.102 35.66 113.929 35.66ZM130.689 37.2C129.462 37.2 128.442 36.9733 127.629 36.52C126.829 36.0667 126.222 35.4333 125.809 34.62C125.396 33.8067 125.169 32.86 125.129 31.78C125.116 31.2333 125.109 30.6467 125.109 30.02C125.109 29.3933 125.116 28.7933 125.129 28.22C125.169 27.14 125.396 26.1933 125.809 25.38C126.222 24.5667 126.829 23.9333 127.629 23.48C128.442 23.0267 129.462 22.8 130.689 22.8C131.609 22.8 132.416 22.9267 133.109 23.18C133.802 23.4333 134.376 23.7733 134.829 24.2C135.296 24.6267 135.649 25.1067 135.889 25.64C136.129 26.16 136.262 26.7 136.289 27.26C136.302 27.38 136.262 27.48 136.169 27.56C136.089 27.64 135.989 27.68 135.869 27.68H134.769C134.649 27.68 134.542 27.6467 134.449 27.58C134.369 27.5133 134.309 27.3933 134.269 27.22C134.042 26.18 133.616 25.4667 132.989 25.08C132.376 24.6933 131.602 24.5 130.669 24.5C129.602 24.5 128.756 24.8067 128.129 25.42C127.502 26.02 127.162 26.9867 127.109 28.32C127.069 29.4133 127.069 30.5333 127.109 31.68C127.162 33.0133 127.502 33.9867 128.129 34.6C128.756 35.2 129.602 35.5 130.669 35.5C131.602 35.5 132.376 35.3067 132.989 34.92C133.616 34.5333 134.042 33.82 134.269 32.78C134.309 32.6067 134.369 32.4867 134.449 32.42C134.542 32.3533 134.649 32.32 134.769 32.32H135.869C135.989 32.32 136.089 32.36 136.169 32.44C136.262 32.52 136.302 32.62 136.289 32.74C136.262 33.3 136.129 33.8467 135.889 34.38C135.649 34.9 135.296 35.3733 134.829 35.8C134.376 36.2267 133.802 36.5667 133.109 36.82C132.416 37.0733 131.609 37.2 130.689 37.2ZM141.276 37.2C140.609 37.2 140.003 37.0667 139.456 36.8C138.909 36.5333 138.469 36.1733 138.136 35.72C137.803 35.2667 137.636 34.7533 137.636 34.18C137.636 33.26 138.009 32.5267 138.756 31.98C139.503 31.4333 140.476 31.0733 141.676 30.9L144.656 30.48V29.9C144.656 29.26 144.469 28.76 144.096 28.4C143.736 28.04 143.143 27.86 142.316 27.86C141.716 27.86 141.229 27.98 140.856 28.22C140.496 28.46 140.243 28.7667 140.096 29.14C140.016 29.34 139.876 29.44 139.676 29.44H138.776C138.629 29.44 138.516 29.4 138.436 29.32C138.369 29.2267 138.336 29.12 138.336 29C138.336 28.8 138.409 28.5533 138.556 28.26C138.716 27.9667 138.956 27.68 139.276 27.4C139.596 27.12 140.003 26.8867 140.496 26.7C141.003 26.5 141.616 26.4 142.336 26.4C143.136 26.4 143.809 26.5067 144.356 26.72C144.903 26.92 145.329 27.1933 145.636 27.54C145.956 27.8867 146.183 28.28 146.316 28.72C146.463 29.16 146.536 29.6067 146.536 30.06V36.54C146.536 36.6733 146.489 36.7867 146.396 36.88C146.316 36.96 146.209 37 146.076 37H145.156C145.009 37 144.896 36.96 144.816 36.88C144.736 36.7867 144.696 36.6733 144.696 36.54V35.68C144.523 35.92 144.289 36.16 143.996 36.4C143.703 36.6267 143.336 36.82 142.896 36.98C142.456 37.1267 141.916 37.2 141.276 37.2ZM141.696 35.7C142.243 35.7 142.743 35.5867 143.196 35.36C143.649 35.12 144.003 34.7533 144.256 34.26C144.523 33.7667 144.656 33.1467 144.656 32.4V31.84L142.336 32.18C141.389 32.3133 140.676 32.54 140.196 32.86C139.716 33.1667 139.476 33.56 139.476 34.04C139.476 34.4133 139.583 34.7267 139.796 34.98C140.023 35.22 140.303 35.4 140.636 35.52C140.983 35.64 141.336 35.7 141.696 35.7ZM149.538 37C149.404 37 149.291 36.96 149.198 36.88C149.118 36.7867 149.078 36.6733 149.078 36.54V27.08C149.078 26.9467 149.118 26.8333 149.198 26.74C149.291 26.6467 149.404 26.6 149.538 26.6H150.458C150.591 26.6 150.704 26.6467 150.798 26.74C150.891 26.8333 150.938 26.9467 150.938 27.08V27.96C151.204 27.5067 151.571 27.1667 152.038 26.94C152.504 26.7133 153.064 26.6 153.718 26.6H154.518C154.651 26.6 154.758 26.6467 154.838 26.74C154.918 26.82 154.958 26.9267 154.958 27.06V27.88C154.958 28.0133 154.918 28.12 154.838 28.2C154.758 28.28 154.651 28.32 154.518 28.32H153.318C152.598 28.32 152.031 28.5333 151.618 28.96C151.204 29.3733 150.998 29.94 150.998 30.66V36.54C150.998 36.6733 150.951 36.7867 150.858 36.88C150.764 36.96 150.651 37 150.518 37H149.538ZM160.402 37C159.655 37 159.049 36.86 158.582 36.58C158.115 36.2867 157.775 35.88 157.562 35.36C157.349 34.8267 157.242 34.2 157.242 33.48V28.2H155.682C155.549 28.2 155.435 28.16 155.342 28.08C155.262 27.9867 155.222 27.8733 155.222 27.74V27.06C155.222 26.9267 155.262 26.82 155.342 26.74C155.435 26.6467 155.549 26.6 155.682 26.6H157.242V23.26C157.242 23.1267 157.282 23.02 157.362 22.94C157.455 22.8467 157.569 22.8 157.702 22.8H158.642C158.775 22.8 158.882 22.8467 158.962 22.94C159.055 23.02 159.102 23.1267 159.102 23.26V26.6H161.582C161.715 26.6 161.822 26.6467 161.902 26.74C161.995 26.82 162.042 26.9267 162.042 27.06V27.74C162.042 27.8733 161.995 27.9867 161.902 28.08C161.822 28.16 161.715 28.2 161.582 28.2H159.102V33.34C159.102 33.9667 159.209 34.46 159.422 34.82C159.635 35.18 160.015 35.36 160.562 35.36H161.782C161.915 35.36 162.022 35.4067 162.102 35.5C162.195 35.58 162.242 35.6867 162.242 35.82V36.54C162.242 36.6733 162.195 36.7867 162.102 36.88C162.022 36.96 161.915 37 161.782 37H160.402Z" fill="#F39C11"/>
<defs>
<clipPath id="clip0_1_90">
<rect width="32" height="32" fill="white" transform="translate(18.5 14)"/>
</clipPath>
</defs>
</svg>
