<svg width="150" height="150" viewBox="0 0 150 150" fill="none" xmlns="http://www.w3.org/2000/svg">
<path d="M46.875 32.8125V14.0625C46.875 12.8193 47.3689 11.627 48.2479 10.7479C49.127 9.86886 50.3193 9.375 51.5625 9.375C52.8057 9.375 53.998 9.86886 54.8771 10.7479C55.7561 11.627 56.25 12.8193 56.25 14.0625V32.8125C56.25 34.0557 55.7561 35.248 54.8771 36.1271C53.998 37.0061 52.8057 37.5 51.5625 37.5C50.3193 37.5 49.127 37.0061 48.2479 36.1271C47.3689 35.248 46.875 34.0557 46.875 32.8125ZM70.3125 37.5C71.5557 37.5 72.748 37.0061 73.6271 36.1271C74.5061 35.248 75 34.0557 75 32.8125V14.0625C75 12.8193 74.5061 11.627 73.6271 10.7479C72.748 9.86886 71.5557 9.375 70.3125 9.375C69.0693 9.375 67.877 9.86886 66.9979 10.7479C66.1189 11.627 65.625 12.8193 65.625 14.0625V32.8125C65.625 34.0557 66.1189 35.248 66.9979 36.1271C67.877 37.0061 69.0693 37.5 70.3125 37.5ZM89.0625 37.5C90.3057 37.5 91.498 37.0061 92.3771 36.1271C93.2561 35.248 93.75 34.0557 93.75 32.8125V14.0625C93.75 12.8193 93.2561 11.627 92.3771 10.7479C91.498 9.86886 90.3057 9.375 89.0625 9.375C87.8193 9.375 86.627 9.86886 85.7479 10.7479C84.8689 11.627 84.375 12.8193 84.375 14.0625V32.8125C84.375 34.0557 84.8689 35.248 85.7479 36.1271C86.627 37.0061 87.8193 37.5 89.0625 37.5ZM145.312 70.3125V75C145.311 80.9622 143.037 86.6996 138.953 91.0441C134.87 95.3886 129.285 98.0136 123.334 98.3848C120.137 107.429 114.693 115.512 107.514 121.875H121.875C123.118 121.875 124.31 122.369 125.19 123.248C126.069 124.127 126.562 125.319 126.562 126.562C126.562 127.806 126.069 128.998 125.19 129.877C124.31 130.756 123.118 131.25 121.875 131.25H18.75C17.5068 131.25 16.3145 130.756 15.4354 129.877C14.5564 128.998 14.0625 127.806 14.0625 126.562C14.0625 125.319 14.5564 124.127 15.4354 123.248C16.3145 122.369 17.5068 121.875 18.75 121.875H33.1289C27.1482 116.591 22.3564 110.099 19.0698 102.827C15.7832 95.5545 14.0765 87.6679 14.0625 79.6875V51.5625C14.0625 50.3193 14.5564 49.127 15.4354 48.2479C16.3145 47.3689 17.5068 46.875 18.75 46.875H121.875C128.091 46.875 134.052 49.3443 138.448 53.7397C142.843 58.1351 145.312 64.0965 145.312 70.3125ZM117.188 56.25H23.4375V79.6875C23.4556 88.4887 25.9428 97.1083 30.6164 104.566C35.29 112.024 41.9624 118.021 49.875 121.875H90.75C98.6626 118.021 105.335 112.024 110.009 104.566C114.682 97.1083 117.169 88.4887 117.188 79.6875V56.25ZM135.938 70.3125C135.937 67.4052 135.035 64.5696 133.356 62.1961C131.677 59.8225 129.304 58.0277 126.562 57.0586V79.6875C126.559 82.6311 126.324 85.5698 125.859 88.4766C128.768 87.6173 131.321 85.8408 133.137 83.4121C134.953 80.9835 135.935 78.0327 135.938 75V70.3125Z" fill="#FFF4D8"/>
</svg>
