<svg width="150" height="150" viewBox="0 0 150 150" fill="none" xmlns="http://www.w3.org/2000/svg">
<path d="M126.562 23.4375H23.4375C20.9511 23.4375 18.5665 24.4252 16.8084 26.1834C15.0502 27.9415 14.0625 30.3261 14.0625 32.8125V117.188C14.0625 119.674 15.0502 122.058 16.8084 123.817C18.5665 125.575 20.9511 126.562 23.4375 126.562H31.2832C32.1704 126.563 33.0394 126.311 33.7893 125.837C34.5392 125.363 35.1392 124.686 35.5195 123.885C37.7989 119.072 41.3977 115.006 45.8973 112.158C50.397 109.311 55.6125 107.799 60.9375 107.799C66.2625 107.799 71.478 109.311 75.9777 112.158C80.4773 115.006 84.0761 119.072 86.3555 123.885C86.7358 124.686 87.3358 125.363 88.0857 125.837C88.8356 126.311 89.7047 126.563 90.5918 126.562H126.562C129.049 126.562 131.433 125.575 133.192 123.817C134.95 122.058 135.938 119.674 135.938 117.188V32.8125C135.938 30.3261 134.95 27.9415 133.192 26.1834C131.433 24.4252 129.049 23.4375 126.562 23.4375ZM46.875 84.375C46.875 81.5937 47.6998 78.8749 49.245 76.5623C50.7902 74.2497 52.9864 72.4473 55.556 71.3829C58.1256 70.3186 60.9531 70.0401 63.681 70.5827C66.4088 71.1253 68.9145 72.4646 70.8812 74.4313C72.8479 76.398 74.1872 78.9037 74.7298 81.6315C75.2724 84.3594 74.9939 87.1869 73.9296 89.7565C72.8652 92.3261 71.0628 94.5223 68.7502 96.0675C66.4376 97.6128 63.7188 98.4375 60.9375 98.4375C57.2079 98.4375 53.631 96.9559 50.9938 94.3187C48.3566 91.6815 46.875 88.1046 46.875 84.375ZM126.562 117.188H93.416C89.5016 110.458 83.601 105.103 76.5234 101.859C80.0718 98.6999 82.5761 94.5366 83.7045 89.9213C84.8328 85.3061 84.5318 80.457 82.8415 76.0167C81.1511 71.5764 78.1512 67.7547 74.2394 65.0582C70.3276 62.3617 65.6886 60.9177 60.9375 60.9177C56.1864 60.9177 51.5474 62.3617 47.6356 65.0582C43.7238 67.7547 40.7239 71.5764 39.0335 76.0167C37.3432 80.457 37.0422 85.3061 38.1705 89.9213C39.2989 94.5366 41.8032 98.6999 45.3516 101.859C38.274 105.103 32.3734 110.458 28.459 117.188H23.4375V32.8125H126.562V117.188ZM32.8125 56.25V46.875C32.8125 45.6318 33.3064 44.4395 34.1854 43.5604C35.0645 42.6814 36.2568 42.1875 37.5 42.1875H112.5C113.743 42.1875 114.935 42.6814 115.815 43.5604C116.694 44.4395 117.188 45.6318 117.188 46.875V103.125C117.188 104.368 116.694 105.56 115.815 106.44C114.935 107.319 113.743 107.812 112.5 107.812H103.125C101.882 107.812 100.69 107.319 99.8104 106.44C98.9314 105.56 98.4375 104.368 98.4375 103.125C98.4375 101.882 98.9314 100.69 99.8104 99.8104C100.69 98.9314 101.882 98.4375 103.125 98.4375H107.812V51.5625H42.1875V56.25C42.1875 57.4932 41.6936 58.6855 40.8146 59.5646C39.9355 60.4436 38.7432 60.9375 37.5 60.9375C36.2568 60.9375 35.0645 60.4436 34.1854 59.5646C33.3064 58.6855 32.8125 57.4932 32.8125 56.25Z" fill="#FFF4D8"/>
</svg>
