<svg width="150" height="150" viewBox="0 0 150 150" fill="none" xmlns="http://www.w3.org/2000/svg">
<path d="M98.4375 89.0625C98.4375 90.3057 97.9436 91.498 97.0646 92.3771C96.1855 93.2561 94.9932 93.75 93.75 93.75H56.25C55.0068 93.75 53.8145 93.2561 52.9354 92.3771C52.0564 91.498 51.5625 90.3057 51.5625 89.0625C51.5625 87.8193 52.0564 86.627 52.9354 85.7479C53.8145 84.8689 55.0068 84.375 56.25 84.375H93.75C94.9932 84.375 96.1855 84.8689 97.0646 85.7479C97.9436 86.627 98.4375 87.8193 98.4375 89.0625ZM93.75 65.625H56.25C55.0068 65.625 53.8145 66.1189 52.9354 66.9979C52.0564 67.877 51.5625 69.0693 51.5625 70.3125C51.5625 71.5557 52.0564 72.748 52.9354 73.6271C53.8145 74.5061 55.0068 75 56.25 75H93.75C94.9932 75 96.1855 74.5061 97.0646 73.6271C97.9436 72.748 98.4375 71.5557 98.4375 70.3125C98.4375 69.0693 97.9436 67.877 97.0646 66.9979C96.1855 66.1189 94.9932 65.625 93.75 65.625ZM126.562 28.125V126.563C126.562 129.049 125.575 131.433 123.817 133.192C122.058 134.95 119.674 135.938 117.188 135.938H32.8125C30.3261 135.938 27.9415 134.95 26.1834 133.192C24.4252 131.433 23.4375 129.049 23.4375 126.563V28.125C23.4375 25.6386 24.4252 23.254 26.1834 21.4959C27.9415 19.7377 30.3261 18.75 32.8125 18.75H54.0586C56.6924 15.8011 59.9193 13.4417 63.5281 11.8263C67.1369 10.2109 71.0462 9.37585 75 9.37585C78.9538 9.37585 82.8631 10.2109 86.4719 11.8263C90.0807 13.4417 93.3076 15.8011 95.9414 18.75H117.188C119.674 18.75 122.058 19.7377 123.817 21.4959C125.575 23.254 126.562 25.6386 126.562 28.125ZM56.25 37.5H93.75C93.75 32.5272 91.7746 27.7581 88.2582 24.2418C84.7419 20.7254 79.9728 18.75 75 18.75C70.0272 18.75 65.2581 20.7254 61.7417 24.2418C58.2254 27.7581 56.25 32.5272 56.25 37.5ZM117.188 28.125H101.514C102.58 31.1356 103.125 34.3061 103.125 37.5V42.1875C103.125 43.4307 102.631 44.623 101.752 45.5021C100.873 46.3811 99.6807 46.875 98.4375 46.875H51.5625C50.3193 46.875 49.127 46.3811 48.2479 45.5021C47.3689 44.623 46.875 43.4307 46.875 42.1875V37.5C46.8751 34.3061 47.42 31.1356 48.4863 28.125H32.8125V126.563H117.188V28.125Z" fill="#FFF4D8"/>
</svg>
