<svg width="115" height="36" viewBox="0 0 115 36" fill="none" xmlns="http://www.w3.org/2000/svg">
<path d="M10.36 36C10.0666 36 9.82664 35.9067 9.63997 35.72C9.4533 35.5333 9.35997 35.2933 9.35997 35V32.24C7.30664 31.9733 5.58664 31.4533 4.19997 30.68C2.83997 29.9067 1.8133 28.9733 1.11997 27.88C0.426637 26.76 0.0533041 25.5867 -2.92361e-05 24.36C-2.92361e-05 24.1467 0.0799708 23.96 0.239971 23.8C0.426637 23.6133 0.639971 23.52 0.879971 23.52H5.91997C6.2933 23.52 6.5733 23.5867 6.75997 23.72C6.94664 23.8533 7.1333 24.0267 7.31997 24.24C7.5333 24.64 7.82664 25.0267 8.19997 25.4C8.59997 25.7733 9.10664 26.08 9.71997 26.32C10.36 26.5333 11.1466 26.64 12.08 26.64C13.6266 26.64 14.7866 26.4 15.56 25.92C16.36 25.44 16.76 24.7867 16.76 23.96C16.76 23.3733 16.5466 22.8933 16.12 22.52C15.6933 22.12 15 21.7733 14.04 21.48C13.1066 21.16 11.8533 20.84 10.28 20.52C8.2533 20.0933 6.51997 19.5467 5.07997 18.88C3.66664 18.1867 2.58664 17.2933 1.83997 16.2C1.0933 15.08 0.719971 13.6933 0.719971 12.04C0.719971 9.90667 1.47997 8.09333 2.99997 6.6C4.54664 5.10666 6.66664 4.17333 9.35997 3.8V0.999999C9.35997 0.706666 9.4533 0.466666 9.63997 0.279998C9.82664 0.0933324 10.0666 -4.76837e-07 10.36 -4.76837e-07H13.68C13.9466 -4.76837e-07 14.1733 0.0933324 14.36 0.279998C14.5733 0.466666 14.68 0.706666 14.68 0.999999V3.88C16.52 4.2 18.0666 4.77333 19.32 5.6C20.5733 6.42667 21.52 7.36 22.16 8.4C22.8266 9.44 23.1733 10.44 23.2 11.4C23.2 11.6133 23.12 11.8133 22.96 12C22.8 12.16 22.6 12.24 22.36 12.24H17.08C16.7866 12.24 16.5333 12.1867 16.32 12.08C16.1066 11.9733 15.92 11.8 15.76 11.56C15.6 10.9733 15.1733 10.4667 14.48 10.04C13.7866 9.58667 12.8933 9.36 11.8 9.36C10.6533 9.36 9.74664 9.57333 9.07997 10C8.4133 10.4 8.07997 11.0267 8.07997 11.88C8.07997 12.4133 8.2533 12.88 8.59997 13.28C8.9733 13.68 9.58664 14.0267 10.44 14.32C11.2933 14.6133 12.4533 14.92 13.92 15.24C16.3466 15.6933 18.3066 16.2667 19.8 16.96C21.2933 17.6267 22.3866 18.5067 23.08 19.6C23.7733 20.6667 24.12 22.0133 24.12 23.64C24.12 25.2133 23.72 26.6 22.92 27.8C22.1466 29 21.0533 29.9733 19.64 30.72C18.2266 31.4667 16.5733 31.96 14.68 32.2V35C14.68 35.2933 14.5733 35.5333 14.36 35.72C14.1733 35.9067 13.9466 36 13.68 36H10.36ZM44.3677 32C44.101 32 43.861 31.9067 43.6477 31.72C43.461 31.5333 43.3677 31.2933 43.3677 31V11.96L37.8877 16.16C37.6477 16.3467 37.3943 16.4133 37.1277 16.36C36.8877 16.3067 36.6743 16.16 36.4877 15.92L34.1277 12.84C33.9677 12.6 33.901 12.3467 33.9277 12.08C33.981 11.7867 34.141 11.56 34.4077 11.4L43.6077 4.28C43.7677 4.17333 43.9143 4.10667 44.0477 4.08C44.2077 4.02667 44.381 4 44.5677 4H49.5677C49.8343 4 50.061 4.09333 50.2477 4.28C50.461 4.46667 50.5677 4.70667 50.5677 5V31C50.5677 31.2933 50.461 31.5333 50.2477 31.72C50.061 31.9067 49.8343 32 49.5677 32H44.3677ZM65.8372 32.4C63.7572 32.4 61.9838 32.16 60.5172 31.68C59.0505 31.1733 57.8505 30.5333 56.9172 29.76C55.9838 28.96 55.2905 28.12 54.8372 27.24C54.3838 26.3333 54.1438 25.4667 54.1172 24.64C54.1172 24.4 54.1972 24.2 54.3572 24.04C54.5438 23.88 54.7572 23.8 54.9972 23.8H60.1972C60.5172 23.8 60.7705 23.8667 60.9572 24C61.1438 24.1067 61.3172 24.2933 61.4772 24.56C61.6905 25.0667 61.9972 25.48 62.3972 25.8C62.8238 26.12 63.3305 26.3467 63.9172 26.48C64.5038 26.5867 65.1438 26.64 65.8372 26.64C67.1972 26.64 68.2505 26.3333 68.9972 25.72C69.7705 25.08 70.1572 24.2133 70.1572 23.12C70.1572 21.9733 69.7972 21.16 69.0772 20.68C68.3572 20.1733 67.3305 19.92 65.9972 19.92H61.5572C61.2638 19.92 61.0238 19.8267 60.8372 19.64C60.6505 19.4533 60.5572 19.2133 60.5572 18.92V16.68C60.5572 16.36 60.6238 16.08 60.7572 15.84C60.8905 15.6 61.0372 15.4267 61.1972 15.32L67.7572 9.76H56.6372C56.3705 9.76 56.1305 9.66666 55.9172 9.48C55.7305 9.29333 55.6372 9.05333 55.6372 8.76V5C55.6372 4.70667 55.7305 4.46667 55.9172 4.28C56.1305 4.09333 56.3705 4 56.6372 4H75.0372C75.3305 4 75.5705 4.09333 75.7572 4.28C75.9705 4.46667 76.0772 4.70667 76.0772 5V8.4C76.0772 8.69333 76.0105 8.96 75.8772 9.2C75.7438 9.41333 75.5972 9.58667 75.4372 9.72L69.3572 15.36L69.6372 15.44C71.1572 15.6267 72.5172 16.04 73.7172 16.68C74.9172 17.2933 75.8638 18.16 76.5572 19.28C77.2505 20.4 77.5972 21.8267 77.5972 23.56C77.5972 25.3733 77.0772 26.9467 76.0372 28.28C75.0238 29.5867 73.6372 30.6 71.8772 31.32C70.1172 32.04 68.1038 32.4 65.8372 32.4ZM82.031 32C81.7377 32 81.4977 31.9067 81.311 31.72C81.1243 31.5333 81.031 31.2933 81.031 31V25.92C81.031 25.6533 81.1243 25.4267 81.311 25.24C81.4977 25.0267 81.7377 24.92 82.031 24.92H87.071C87.3643 24.92 87.6043 25.0267 87.791 25.24C88.0043 25.4267 88.111 25.6533 88.111 25.92V31C88.111 31.2933 88.0043 31.5333 87.791 31.72C87.6043 31.9067 87.3643 32 87.071 32H82.031ZM102.91 32.4C100.563 32.4 98.4962 31.9733 96.7096 31.12C94.9229 30.2667 93.5229 29.0933 92.5096 27.6C91.5229 26.08 91.0296 24.3467 91.0296 22.4C91.0296 21.5733 91.1496 20.76 91.3896 19.96C91.6562 19.1333 91.9762 18.36 92.3496 17.64C92.7229 16.8933 93.0962 16.24 93.4696 15.68C93.8429 15.0933 94.1496 14.6267 94.3896 14.28L101.43 4.8C101.563 4.66666 101.736 4.50666 101.95 4.32C102.163 4.10666 102.47 4 102.87 4H108.19C108.43 4 108.63 4.09333 108.79 4.28C108.95 4.44 109.03 4.64 109.03 4.88C109.03 4.98667 109.016 5.09333 108.99 5.2C108.963 5.28 108.923 5.34666 108.87 5.4L103.47 12.76C103.63 12.7067 103.816 12.68 104.03 12.68C104.27 12.6533 104.483 12.64 104.67 12.64C105.87 12.6933 107.056 12.96 108.23 13.44C109.403 13.92 110.47 14.5733 111.43 15.4C112.39 16.2267 113.15 17.2267 113.71 18.4C114.296 19.5467 114.59 20.84 114.59 22.28C114.59 24.12 114.11 25.8133 113.15 27.36C112.19 28.88 110.83 30.1067 109.07 31.04C107.336 31.9467 105.283 32.4 102.91 32.4ZM102.87 26.64C103.643 26.64 104.363 26.48 105.03 26.16C105.696 25.8133 106.23 25.3333 106.63 24.72C107.056 24.08 107.27 23.2933 107.27 22.36C107.27 21.4267 107.07 20.6533 106.67 20.04C106.27 19.4 105.736 18.92 105.07 18.6C104.403 18.28 103.67 18.12 102.87 18.12C102.07 18.12 101.323 18.28 100.63 18.6C99.9629 18.92 99.4296 19.4 99.0296 20.04C98.6296 20.6533 98.4296 21.4267 98.4296 22.36C98.4296 23.2933 98.6296 24.08 99.0296 24.72C99.4562 25.3333 100.003 25.8133 100.67 26.16C101.336 26.48 102.07 26.64 102.87 26.64Z" fill="#0D1015"/>
</svg>
