<svg width="992" height="101" viewBox="0 0 992 101" fill="none" xmlns="http://www.w3.org/2000/svg">
<path d="M42.9999 76.9C37.7999 76.9 35.1999 74.6666 35.1999 70.2C35.1999 68.7333 35.3999 67.0666 35.7999 65.2C36.2666 63.2666 36.8999 60.8 37.6999 57.8C38.6332 54.6666 39.3332 51.9999 39.7999 49.8C40.2666 47.6 40.4999 45.6333 40.4999 43.8999C40.4999 39.3666 38.4999 37.0999 34.4999 37.0999C33.4332 37.0999 32.3332 37.2333 31.1999 37.5L23.1999 75.2H8.7999L22.3999 11.5999L37.1999 9.59995L32.2999 32.6999H33.0999C35.6999 32.6999 38.0999 31.7999 40.2999 29.9999C42.4999 28.1999 44.1999 25.9666 45.3999 23.2999C46.6666 20.5666 47.2999 17.8999 47.2999 15.2999C47.2999 12.2333 46.3666 9.73328 44.4999 7.79995C42.6999 5.79995 39.9666 4.79995 36.2999 4.79995C30.8999 4.79995 26.1666 5.76661 22.0999 7.69995C18.0332 9.63328 14.8666 12.4333 12.5999 16.0999C10.3999 19.7666 9.2999 24.0999 9.2999 29.0999C9.2999 31.5666 9.53324 33.2999 9.9999 34.3C10.4666 35.2333 10.6999 35.7666 10.6999 35.9C7.0999 35.9 4.3999 35.1666 2.5999 33.6999C0.866569 32.1666 -9.7651e-05 29.6666 -9.7651e-05 26.2C-9.7651e-05 21.9333 1.73324 17.7999 5.1999 13.7999C8.73324 9.73328 13.2332 6.46662 18.6999 3.99995C24.1666 1.46661 29.6332 0.199945 35.0999 0.199945C40.0999 0.199945 44.2999 0.933279 47.6999 2.39995C51.0999 3.86661 53.6332 5.83328 55.2999 8.29995C56.9666 10.6999 57.7999 13.3333 57.7999 16.1999C57.7999 19.3333 56.8332 22.4666 54.8999 25.5999C52.9666 28.7333 50.3332 31.2999 46.9999 33.2999C49.5332 34.0333 51.2999 35.2666 52.2999 36.9999C53.3666 38.6666 53.8999 40.7666 53.8999 43.3C53.8999 45.2333 53.6666 47.2999 53.1999 49.5C52.7332 51.6333 52.0666 54.3 51.1999 57.5C50.6666 59.5666 50.1666 61.6 49.6999 63.6C49.2332 65.6 48.9999 67.2666 48.9999 68.6C48.9999 70.1333 49.3332 71.5 49.9999 72.7C50.7332 73.9 51.6999 74.7333 52.8999 75.2C48.8332 76.3333 45.5332 76.9 42.9999 76.9ZM73.7585 75.8C68.8252 75.8 64.9918 74.5333 62.2585 72C59.5252 69.4 58.1585 65.3666 58.1585 59.8999C58.1585 55.2999 59.0585 50.2333 60.8585 44.7C62.6585 39.1666 65.5918 34.3999 69.6585 30.3999C73.7252 26.3333 78.8918 24.3 85.1585 24.3C92.4918 24.3 96.1585 27.5 96.1585 33.8999C96.1585 37.6333 95.0918 41.0666 92.9585 44.2C90.8252 47.3333 87.9918 49.8666 84.4585 51.7999C80.9252 53.6666 77.1585 54.7333 73.1585 55C73.0252 57 72.9585 58.3333 72.9585 59C72.9585 62.2666 73.5252 64.5 74.6585 65.7C75.7918 66.8333 77.6252 67.4 80.1585 67.4C83.7585 67.4 86.8252 66.5666 89.3585 64.9C91.9585 63.2333 94.7918 60.7 97.8585 57.3H101.258C93.8585 69.6333 84.6918 75.8 73.7585 75.8ZM73.9585 50.2C76.4252 50.0666 78.7585 49.2 80.9585 47.5999C83.2252 45.9999 85.0252 43.9666 86.3585 41.4999C87.7585 39.0333 88.4585 36.4333 88.4585 33.6999C88.4585 30.9666 87.6252 29.5999 85.9585 29.5999C83.5585 29.5999 81.1918 31.6999 78.8585 35.9C76.5918 40.1 74.9585 44.8666 73.9585 50.2ZM107.737 75.8C104.537 75.8 101.937 74.8 99.9374 72.8C98.0041 70.8 97.0374 67.8 97.0374 63.8C97.0374 62.1333 97.3041 59.9666 97.8374 57.3L108.537 7.19995L123.337 5.19995L111.837 59.2C111.571 60.2 111.437 61.2666 111.437 62.4C111.437 63.7333 111.737 64.7 112.337 65.3C113.004 65.8333 114.071 66.1 115.537 66.1C117.471 66.1 119.271 65.3 120.937 63.7C122.604 62.0333 123.804 59.9 124.537 57.3H128.737C126.271 64.5 123.104 69.4 119.237 72C115.371 74.5333 111.537 75.8 107.737 75.8ZM136.498 75.8C132.698 75.8 129.531 74.5 126.998 71.9C124.464 69.3 123.198 65.2333 123.198 59.7C123.198 54.7666 124.164 49.5999 126.098 44.2C128.098 38.7333 131.031 34.1333 134.898 30.3999C138.831 26.6 143.498 24.7 148.898 24.7C151.631 24.7 153.664 25.1666 154.998 26.0999C156.331 27.0333 156.998 28.2666 156.998 29.7999V30.4999L158.098 25.2H172.498L165.298 59.2C165.098 60.0666 164.998 60.9 164.998 61.7C164.998 64.6333 166.431 66.1 169.298 66.1C171.831 66.1 174.564 65.2 177.498 63.4C180.498 61.6 183.098 59.3666 185.298 56.7L179.498 25.2H193.598L197.498 46.8C200.498 43.5999 202.831 40.5999 204.498 37.7999C206.164 35 206.998 32.6999 206.998 30.8999C206.998 30.2999 206.964 29.8999 206.898 29.6999C205.964 29.8333 205.398 29.9 205.198 29.9C203.531 29.9 202.331 29.3999 201.598 28.3999C200.864 27.3333 200.498 25.9666 200.498 24.3C200.498 22.8333 201.031 21.6999 202.098 20.8999C203.164 20.0333 204.498 19.5999 206.098 19.5999C208.231 19.5999 209.898 20.4333 211.098 22.0999C212.298 23.7666 212.898 25.8999 212.898 28.5C212.898 31.6999 211.764 35.1666 209.498 38.9C207.298 42.5666 203.664 47.0333 198.598 52.2999L199.498 57.3C200.098 60.6333 200.764 62.9333 201.498 64.2C202.298 65.4666 203.731 66.1 205.798 66.1C206.998 66.1 208.064 65.9 208.998 65.5C208.731 68.8333 207.531 71.4 205.398 73.2C203.331 74.9333 200.864 75.8 197.998 75.8C194.864 75.8 192.431 74.7666 190.698 72.7C189.031 70.6333 187.598 67.2 186.398 62.4C179.331 71.3333 171.498 75.8 162.898 75.8C160.031 75.8 157.531 74.9666 155.398 73.3C153.331 71.6333 152.031 69.3333 151.498 66.4C147.364 72.6666 142.364 75.8 136.498 75.8ZM142.998 66.1C144.664 66.1 146.298 65.3333 147.898 63.8C149.564 62.2 150.698 60.0333 151.298 57.3L156.098 34.6999C156.098 33.8333 155.764 33 155.098 32.2C154.431 31.3333 153.398 30.8999 151.998 30.8999C149.331 30.8999 146.931 32.4666 144.798 35.5999C142.664 38.6666 140.998 42.3999 139.798 46.8C138.598 51.1333 137.998 54.9666 137.998 58.2999C137.998 61.6333 138.464 63.7666 139.398 64.7C140.398 65.6333 141.598 66.1 142.998 66.1ZM300.256 34.6999C300.456 35.4999 300.556 36.2666 300.556 36.9999C300.556 39.3333 299.656 41.5333 297.856 43.5999C296.123 45.6666 293.923 47.1333 291.256 47.9999C290.123 48.3333 288.789 48.4999 287.256 48.4999C286.656 54.1666 284.956 59.1666 282.156 63.5C279.423 67.7666 275.823 71.1 271.356 73.5C266.889 75.8333 261.889 77 256.356 77C250.023 77 245.023 75.4 241.356 72.2C237.756 69 235.956 64.6666 235.956 59.2C235.956 55.5333 236.756 51.9333 238.356 48.4C240.023 44.7999 242.256 41.6999 245.056 39.0999C247.923 36.4999 251.056 34.7 254.456 33.6999V33.2999C252.389 31.5666 250.923 29.7333 250.056 27.7999C249.189 25.8666 248.756 23.4666 248.756 20.6C248.756 16.9999 249.723 13.6333 251.656 10.4999C253.656 7.29995 256.323 4.76661 259.656 2.89995C263.056 0.966614 266.723 -5.22137e-05 270.656 -5.22137e-05C275.189 -5.22137e-05 278.923 1.29995 281.856 3.89995C284.789 6.49995 286.256 9.79995 286.256 13.7999C286.256 16.5333 285.556 18.7666 284.156 20.4999C282.756 22.2333 280.923 23.0999 278.656 23.0999C276.123 23.0999 274.089 22.0666 272.556 19.9999C273.756 19.2666 274.723 18.1333 275.456 16.5999C276.256 15.0666 276.656 13.4333 276.656 11.6999C276.656 9.83328 276.189 8.36661 275.256 7.29995C274.323 6.23328 273.056 5.69995 271.456 5.69995C269.723 5.69995 268.056 6.36661 266.456 7.69995C264.856 9.03328 263.556 10.8333 262.556 13.0999C261.623 15.2999 261.156 17.6333 261.156 20.1C261.156 23.4333 262.056 26.2666 263.856 28.5999C265.656 30.8666 268.123 32.3999 271.256 33.1999V33.6C268.123 34.2 265.156 35.6666 262.356 38C259.623 40.2666 257.423 43.0666 255.756 46.3999C254.156 49.6666 253.356 53 253.356 56.4C253.356 59.8666 254.223 62.5666 255.956 64.5C257.689 66.4333 260.089 67.4 263.156 67.4C266.023 67.4 268.856 66.6 271.656 65C274.456 63.4 276.856 61.1666 278.856 58.2999C280.856 55.4333 282.189 52.2 282.856 48.6C281.389 48.6 279.856 48.8 278.256 49.1999C274.589 50.3999 271.956 52.1666 270.356 54.4999L270.056 54.5999C269.323 53.6666 268.723 52.4666 268.256 50.9999C267.989 50.2 267.856 49.3333 267.856 48.4C267.856 46.1333 268.656 44.0999 270.256 42.2999C271.856 40.4999 273.856 39.2333 276.256 38.4999C278.123 37.9666 280.689 37.5666 283.956 37.3C286.156 37.1666 288.056 36.9333 289.656 36.6C291.189 36.1333 292.723 35.3666 294.256 34.3C295.856 33.1666 297.056 32.0666 297.856 30.9999H298.056C299.056 31.9999 299.789 33.2333 300.256 34.6999ZM343.5 77C337.433 77 332.833 75.3333 329.7 72C326.633 68.6666 325.1 64.4666 325.1 59.4C325.1 55.8 325.833 52.2 327.3 48.6C328.833 44.9333 331 41.7333 333.8 38.9999C336.6 36.2666 339.867 34.4333 343.6 33.4999C341.533 32.0333 340 30.2666 339 28.1999C338 26.0666 337.5 23.8333 337.5 21.5C337.5 18.0333 338.433 14.6333 340.3 11.2999C342.233 7.96662 344.867 5.26662 348.2 3.19995C351.6 1.06661 355.333 -5.22137e-05 359.4 -5.22137e-05C363.6 -5.22137e-05 367.033 1.09995 369.7 3.29995C372.367 5.49995 373.7 8.56661 373.7 12.4999C373.7 15.4333 372.967 17.8999 371.5 19.8999C370.033 21.8999 368.3 22.9 366.3 22.9C364.5 22.9 362.933 22 361.6 20.1999C362.8 19.7999 363.833 18.6999 364.7 16.9C365.567 15.1 366 13.2999 366 11.4999C366 9.56662 365.467 8.16662 364.4 7.29995C363.333 6.36662 362.033 5.89995 360.5 5.89995C358.567 5.89995 356.8 6.59995 355.2 7.99995C353.667 9.33328 352.467 11.0999 351.6 13.2999C350.733 15.4333 350.3 17.6666 350.3 19.9999C350.3 23.1999 351.133 26.0333 352.8 28.5C354.467 30.8999 357 32.5333 360.4 33.3999C357 34.1333 353.933 35.7999 351.2 38.3999C348.467 40.9999 346.333 44.0333 344.8 47.5C343.267 50.9 342.5 54.1666 342.5 57.3C342.5 60.3 343.267 62.7333 344.8 64.6C346.4 66.4666 348.8 67.4 352 67.4C355.333 67.4 358.8 66.5 362.4 64.7C366.067 62.8333 368.767 60.3333 370.5 57.2L372.8 58.2C370.2 63.9333 366.2 68.5 360.8 71.9C355.4 75.3 349.633 77 343.5 77ZM406.398 75.8C402.332 75.8 399.332 74.7333 397.398 72.6C395.532 70.4 394.598 67.7 394.598 64.5C394.598 63.1 394.765 61.5333 395.098 59.7999C395.432 58 395.765 56.2666 396.098 54.5999C396.498 52.9333 396.765 51.8666 396.898 51.4C397.432 49.0666 397.932 46.7666 398.398 44.5C398.865 42.2333 399.098 40.3999 399.098 38.9999C399.098 35.5999 397.898 33.8999 395.498 33.8999C393.765 33.8999 392.232 34.7666 390.898 36.4999C389.565 38.1666 388.498 40.3666 387.698 43.1L380.898 75.2H366.498L377.098 25.2H391.498L390.398 30.3999C393.732 26.6666 397.632 24.8 402.098 24.8C405.498 24.8 408.198 25.7333 410.198 27.6C412.198 29.4666 413.198 32.2999 413.198 36.0999C413.198 38.0333 412.965 40.1999 412.498 42.6C412.032 44.9333 411.365 47.8 410.498 51.2C409.965 53.2666 409.465 55.3 408.998 57.3C408.598 59.2333 408.398 60.7666 408.398 61.9C408.398 63.2333 408.698 64.2666 409.298 65C409.898 65.7333 410.932 66.1 412.398 66.1C414.398 66.1 415.998 65.4 417.198 64C418.398 62.5333 419.598 60.3 420.798 57.3H424.998C422.532 64.6333 419.665 69.5666 416.398 72.1C413.198 74.5666 409.865 75.8 406.398 75.8ZM436.687 19.7C434.487 19.7 432.62 18.9333 431.087 17.4C429.553 15.8666 428.787 14 428.787 11.8C428.787 9.59995 429.553 7.73328 431.087 6.19995C432.62 4.59995 434.487 3.79995 436.687 3.79995C438.887 3.79995 440.753 4.59995 442.287 6.19995C443.887 7.73328 444.687 9.59995 444.687 11.8C444.687 14 443.887 15.8666 442.287 17.4C440.753 18.9333 438.887 19.7 436.687 19.7ZM411.787 100.2C408.587 100.2 405.92 99.3666 403.787 97.7C401.653 96.0333 400.587 93.6333 400.587 90.5C400.587 84.0333 406.053 79.0666 416.987 75.6L427.687 25.2H442.087L432.187 71.6C435.387 70.5333 437.953 68.9333 439.887 66.8C441.82 64.6666 443.453 61.5 444.787 57.3H448.987C447.187 63.2333 444.753 67.6 441.687 70.4C438.62 73.1333 435.153 75 431.287 76L429.787 83.2C428.453 89.6666 426.153 94.1 422.887 96.5C419.62 98.9666 415.92 100.2 411.787 100.2ZM409.487 92.4C410.62 92.4 411.72 91.6333 412.787 90.1C413.853 88.5666 414.687 86.3666 415.287 83.5L415.887 80.6C409.353 83 406.087 85.8333 406.087 89.1C406.087 89.9666 406.387 90.7333 406.987 91.4C407.587 92.0666 408.42 92.4 409.487 92.4ZM459.41 75.6C454.477 75.6 450.577 74.3333 447.71 71.8C444.843 69.2666 443.41 65.2666 443.41 59.7999C443.41 55.2666 444.343 50.2333 446.21 44.7C448.077 39.1666 451.077 34.3999 455.21 30.3999C459.343 26.3333 464.543 24.3 470.81 24.3C479.343 24.3 483.61 29.6333 483.61 40.3V40.3999C483.81 40.4666 484.177 40.5 484.71 40.5C486.91 40.5 489.443 39.9333 492.31 38.7999C495.177 37.5999 497.777 36.1666 500.11 34.5L501.01 37.1999C499.077 39.2666 496.543 41.0333 493.41 42.4999C490.343 43.8999 486.977 44.8999 483.31 45.4999C482.777 51.5666 481.41 56.8666 479.21 61.4C477.01 65.9333 474.177 69.4333 470.71 71.9C467.243 74.3666 463.477 75.6 459.41 75.6ZM463.41 66.6C465.01 66.6 466.61 65.7 468.21 63.9C469.81 62.0333 471.21 59.5333 472.41 56.4C473.61 53.1999 474.477 49.6666 475.01 45.8C473.21 45.4 472.31 43.9999 472.31 41.5999C472.31 38.8666 473.343 37.0666 475.41 36.1999C475.277 34 474.943 32.4999 474.41 31.6999C473.877 30.8333 472.943 30.3999 471.61 30.3999C469.41 30.3999 467.277 32 465.21 35.2C463.143 38.3999 461.477 42.2333 460.21 46.6999C458.943 51.1666 458.31 55.1 458.31 58.5C458.31 61.7 458.677 63.8666 459.41 65C460.143 66.0666 461.477 66.6 463.41 66.6ZM504.355 100.2C501.222 100.2 498.455 99.1666 496.055 97.1C493.722 95.1 492.555 92.5333 492.555 89.4C492.555 86.4666 493.289 84.0666 494.755 82.2C496.222 80.3333 498.122 78.8666 500.455 77.8C502.789 76.7333 505.922 75.6 509.855 74.4L510.855 70C507.455 73.8666 503.389 75.8 498.655 75.8C495.455 75.8 492.855 74.8 490.855 72.8C488.922 70.8 487.955 67.8 487.955 63.8C487.955 62.1333 488.222 59.9666 488.755 57.3L495.555 25.2H509.955L502.755 59.2C502.555 60 502.455 60.8333 502.455 61.7C502.455 64.6333 503.455 66.1 505.455 66.1C507.322 66.1 508.922 65.3333 510.255 63.8C511.589 62.2 512.655 60.0333 513.455 57.3L520.255 25.2H534.755L522.555 83.2C521.222 89.6 518.855 94.0333 515.455 96.5C512.122 98.9666 508.422 100.2 504.355 100.2ZM502.055 91.3C503.255 91.3 504.389 90.6666 505.455 89.4C506.522 88.2 507.355 86.2333 507.955 83.5L509.155 77.6C505.622 78.8 502.889 80.2 500.955 81.8C499.022 83.4 498.055 85.4666 498.055 88C498.055 88.8 498.455 89.5333 499.255 90.2C500.055 90.9333 500.989 91.3 502.055 91.3ZM590.831 44.3999L581.231 6.89995C576.498 8.69995 572.831 11.4999 570.231 15.2999C567.631 19.0333 566.331 23.6333 566.331 29.0999C566.331 31.5666 566.564 33.2999 567.031 34.3C567.498 35.2333 567.731 35.7666 567.731 35.9C564.131 35.9 561.431 35.1666 559.631 33.6999C557.898 32.1666 557.031 29.6666 557.031 26.2C557.031 21.9333 558.764 17.7999 562.231 13.7999C565.764 9.73328 570.264 6.46662 575.731 3.99995C581.198 1.46661 586.664 0.199945 592.131 0.199945C593.064 0.199945 594.398 0.266613 596.131 0.399949L604.831 36.1999L619.631 0.699945H626.231L606.831 44.3999L600.231 75.2H584.231L590.831 44.3999ZM633.043 75.6C628.11 75.6 624.21 74.3333 621.343 71.8C618.476 69.2666 617.043 65.2666 617.043 59.7999C617.043 55.2666 617.976 50.2333 619.843 44.7C621.71 39.1666 624.71 34.3999 628.843 30.3999C632.976 26.3333 638.176 24.3 644.443 24.3C652.976 24.3 657.243 29.6333 657.243 40.3V40.3999C657.443 40.4666 657.81 40.5 658.343 40.5C660.543 40.5 663.076 39.9333 665.943 38.7999C668.81 37.5999 671.41 36.1666 673.743 34.5L674.643 37.1999C672.71 39.2666 670.176 41.0333 667.043 42.4999C663.976 43.8999 660.61 44.8999 656.943 45.4999C656.41 51.5666 655.043 56.8666 652.843 61.4C650.643 65.9333 647.81 69.4333 644.343 71.9C640.876 74.3666 637.11 75.6 633.043 75.6ZM637.043 66.6C638.643 66.6 640.243 65.7 641.843 63.9C643.443 62.0333 644.843 59.5333 646.043 56.4C647.243 53.1999 648.11 49.6666 648.643 45.8C646.843 45.4 645.943 43.9999 645.943 41.5999C645.943 38.8666 646.976 37.0666 649.043 36.1999C648.91 34 648.576 32.4999 648.043 31.6999C647.51 30.8333 646.576 30.3999 645.243 30.3999C643.043 30.3999 640.91 32 638.843 35.2C636.776 38.3999 635.11 42.2333 633.843 46.6999C632.576 51.1666 631.943 55.1 631.943 58.5C631.943 61.7 632.31 63.8666 633.043 65C633.776 66.0666 635.11 66.6 637.043 66.6ZM672.288 75.8C669.088 75.8 666.488 74.8 664.488 72.8C662.555 70.8 661.588 67.8 661.588 63.8C661.588 62.1333 661.855 59.9666 662.388 57.3L669.188 25.2H683.588L676.388 59.2C676.188 60.2 676.088 61.1333 676.088 62C676.088 64.7333 677.088 66.1 679.088 66.1C680.955 66.1 682.555 65.3333 683.888 63.8C685.222 62.2 686.288 60.0333 687.088 57.3L693.888 25.2H708.288L701.088 59.2C700.822 60.2 700.688 61.2666 700.688 62.4C700.688 63.7333 700.988 64.7 701.588 65.3C702.255 65.8333 703.322 66.1 704.788 66.1C706.655 66.1 708.255 65.3 709.588 63.7C710.988 62.1 712.088 59.9666 712.888 57.3H717.088C714.622 64.5 711.555 69.4 707.888 72C704.288 74.5333 700.655 75.8 696.988 75.8C694.122 75.8 691.822 75 690.088 73.4C688.422 71.8 687.422 69.4333 687.088 66.3C684.822 69.9666 682.422 72.4666 679.888 73.8C677.422 75.1333 674.888 75.8 672.288 75.8ZM719.676 25.2H734.076L732.776 31.3999C735.043 29.3999 737.076 27.8666 738.876 26.7999C740.743 25.7333 742.743 25.2 744.876 25.2C747.01 25.2 748.676 25.9333 749.876 27.3999C751.143 28.8666 751.776 30.6333 751.776 32.6999C751.776 34.6333 751.143 36.3333 749.876 37.7999C748.61 39.2666 746.843 39.9999 744.576 39.9999C743.11 39.9999 742.11 39.6666 741.576 38.9999C741.11 38.2666 740.743 37.2333 740.476 35.9C740.276 35.0333 740.076 34.3999 739.876 33.9999C739.676 33.5999 739.31 33.3999 738.776 33.3999C737.376 33.3999 736.176 33.7 735.176 34.3C734.243 34.8333 733.01 35.7999 731.476 37.1999L723.476 75.2H709.076L719.676 25.2ZM795.954 76.8C788.42 76.8 782.887 74.9 779.354 71.1C775.82 67.3 774.054 61 774.054 52.2C774.054 45.2 775.22 37.6666 777.554 29.5999C779.954 21.5333 783.754 14.6333 788.954 8.89995C794.22 3.09995 800.887 0.199945 808.954 0.199945C813.954 0.199945 817.987 1.29995 821.054 3.49995C824.12 5.69995 825.654 9.06661 825.654 13.5999C825.654 16.4666 825.087 18.7333 823.954 20.3999C822.82 21.9999 821.054 22.7999 818.654 22.7999C816.254 22.7999 814.354 21.9333 812.954 20.1999C814.154 19.5999 815.22 18.3999 816.154 16.5999C817.087 14.7999 817.554 12.9333 817.554 10.9999C817.554 9.19995 817.054 7.73328 816.054 6.59995C815.12 5.46662 813.587 4.89995 811.454 4.89995C807.92 4.89995 804.554 7.33328 801.354 12.1999C798.154 16.9999 795.554 23.0666 793.554 30.3999C791.62 37.7333 790.654 44.7999 790.654 51.5999C790.654 56.6666 791.52 60.5333 793.254 63.2C794.987 65.8666 798.12 67.2 802.654 67.2C806.587 67.2 810.22 66.3333 813.554 64.6C816.887 62.8666 819.754 60.4 822.154 57.2L824.454 58.2C822.787 62.4 820.32 65.9 817.054 68.7C813.787 71.5 810.287 73.5666 806.554 74.9C802.82 76.1666 799.287 76.8 795.954 76.8ZM836.461 75.6C831.528 75.6 827.628 74.3333 824.761 71.8C821.894 69.2666 820.461 65.2666 820.461 59.7999C820.461 55.2666 821.394 50.2333 823.261 44.7C825.128 39.1666 828.128 34.3999 832.261 30.3999C836.394 26.3333 841.594 24.3 847.861 24.3C856.394 24.3 860.661 29.6333 860.661 40.3V40.3999C860.861 40.4666 861.228 40.5 861.761 40.5C863.961 40.5 866.494 39.9333 869.361 38.7999C872.228 37.5999 874.828 36.1666 877.161 34.5L878.061 37.1999C876.128 39.2666 873.594 41.0333 870.461 42.4999C867.394 43.8999 864.028 44.8999 860.361 45.4999C859.828 51.5666 858.461 56.8666 856.261 61.4C854.061 65.9333 851.228 69.4333 847.761 71.9C844.294 74.3666 840.528 75.6 836.461 75.6ZM840.461 66.6C842.061 66.6 843.661 65.7 845.261 63.9C846.861 62.0333 848.261 59.5333 849.461 56.4C850.661 53.1999 851.528 49.6666 852.061 45.8C850.261 45.4 849.361 43.9999 849.361 41.5999C849.361 38.8666 850.394 37.0666 852.461 36.1999C852.328 34 851.994 32.4999 851.461 31.6999C850.928 30.8333 849.994 30.3999 848.661 30.3999C846.461 30.3999 844.328 32 842.261 35.2C840.194 38.3999 838.528 42.2333 837.261 46.6999C835.994 51.1666 835.361 55.1 835.361 58.5C835.361 61.7 835.728 63.8666 836.461 65C837.194 66.0666 838.528 66.6 840.461 66.6ZM856.706 100.2C853.573 100.2 850.839 99.1666 848.506 97.1C846.106 95.1 844.906 92.5333 844.906 89.4C844.906 86.5333 845.639 84.1666 847.106 82.3C848.573 80.4333 850.506 78.9333 852.906 77.8C855.239 76.7333 858.339 75.6 862.206 74.4L874.206 17.2999C875.539 10.8999 877.873 6.46662 881.206 3.99995C884.606 1.53328 888.339 0.29995 892.406 0.29995C894.673 0.29995 896.773 0.866615 898.706 1.99995C900.706 3.13328 902.173 4.66661 903.106 6.59995C906.373 2.39995 910.939 0.29995 916.806 0.29995C919.939 0.29995 922.673 1.33328 925.006 3.39995C927.406 5.39995 928.606 7.96662 928.606 11.0999C928.606 12.6333 928.506 13.9999 928.306 15.1999H923.606C923.739 13.7333 923.806 12.8333 923.806 12.4999C923.806 11.4333 923.439 10.6 922.706 9.99995C921.973 9.39995 921.073 9.09995 920.006 9.09995C916.739 9.09995 914.473 11.7333 913.206 16.9999L911.406 25.2H921.406L920.506 29.2H910.606L899.306 83.2C897.973 89.6 895.606 94.0333 892.206 96.5C888.873 98.9666 885.173 100.2 881.106 100.2C875.639 100.2 872.039 98.1 870.306 93.9C867.106 98.1 862.573 100.2 856.706 100.2ZM896.906 25.2L898.606 17.2999L899.206 14.6999C899.339 13.6333 899.406 12.8999 899.406 12.4999C899.406 11.4333 899.039 10.6 898.306 9.99995C897.573 9.39995 896.673 9.09995 895.606 9.09995C892.339 9.09995 890.073 11.7333 888.806 16.9999L887.006 25.2H896.906ZM887.606 69.7L896.106 29.2H886.206L877.306 71.5L887.606 69.7ZM878.806 91.3C880.006 91.3 881.139 90.6666 882.206 89.4C883.273 88.2 884.106 86.2333 884.706 83.5L887.106 72.1L876.806 74L874.906 83.2C874.439 85.2666 873.806 87.3 873.006 89.3C873.739 90.6333 875.673 91.3 878.806 91.3ZM855.006 91.3C856.206 91.3 857.339 90.6666 858.406 89.4C859.473 88.2 860.306 86.2333 860.906 83.5L862.106 77.7C858.573 78.9 855.839 80.2666 853.906 81.8C851.973 83.4 851.006 85.4666 851.006 88C851.006 88.8 851.406 89.5333 852.206 90.2C853.006 90.9333 853.939 91.3 855.006 91.3ZM930.887 75.8C925.954 75.8 922.121 74.5333 919.387 72C916.654 69.4 915.287 65.3666 915.287 59.8999C915.287 55.2999 916.187 50.2333 917.987 44.7C919.787 39.1666 922.721 34.3999 926.787 30.3999C930.854 26.3333 936.021 24.3 942.287 24.3C949.621 24.3 953.287 27.5 953.287 33.8999C953.287 37.6333 952.221 41.0666 950.087 44.2C947.954 47.3333 945.121 49.8666 941.587 51.7999C938.054 53.6666 934.287 54.7333 930.287 55C930.154 57 930.087 58.3333 930.087 59C930.087 62.2666 930.654 64.5 931.787 65.7C932.921 66.8333 934.754 67.4 937.287 67.4C940.887 67.4 943.954 66.5666 946.487 64.9C949.087 63.2333 951.921 60.7 954.987 57.3H958.387C950.987 69.6333 941.821 75.8 930.887 75.8ZM931.087 50.2C933.554 50.0666 935.887 49.2 938.087 47.5999C940.354 45.9999 942.154 43.9666 943.487 41.4999C944.887 39.0333 945.587 36.4333 945.587 33.6999C945.587 30.9666 944.754 29.5999 943.087 29.5999C940.687 29.5999 938.321 31.6999 935.987 35.9C933.721 40.1 932.087 44.8666 931.087 50.2ZM969.066 75.8C964.2 75.8 960.4 74.5333 957.666 72C954.933 69.4 953.566 65.3666 953.566 59.8999C953.566 55.2999 954.466 50.2333 956.266 44.7C958.066 39.1666 961 34.3999 965.066 30.3999C969.133 26.3333 974.3 24.3 980.566 24.3C987.9 24.3 991.566 27.5 991.566 33.8999C991.566 37.6333 990.5 41.0666 988.366 44.2C986.233 47.3333 983.4 49.8666 979.866 51.7999C976.333 53.6666 972.566 54.7333 968.566 55C968.433 56.4666 968.366 57.4666 968.366 58C968.366 63.5333 970.433 66.3 974.566 66.3C976.433 66.3 978.433 65.8 980.566 64.8C982.7 63.8 984.633 62.5333 986.366 61C984.566 70.8666 978.8 75.8 969.066 75.8ZM969.266 50.2C971.8 50.1333 974.166 49.2999 976.366 47.7C978.633 46.0999 980.433 44.0666 981.766 41.5999C983.166 39.0666 983.866 36.4333 983.866 33.6999C983.866 30.9666 983.033 29.5999 981.366 29.5999C979.033 29.5999 976.7 31.7333 974.366 35.9999C972.1 40.1999 970.4 44.9333 969.266 50.2Z" fill="white"/>
</svg>
