<svg width="150" height="150" viewBox="0 0 150 150" fill="none" xmlns="http://www.w3.org/2000/svg">
<path d="M82.0313 119.531C82.0313 120.922 81.6189 122.281 80.8463 123.438C80.0737 124.594 78.9755 125.495 77.6908 126.027C76.406 126.559 74.9922 126.699 73.6283 126.427C72.2644 126.156 71.0115 125.486 70.0282 124.503C69.0448 123.52 68.3752 122.267 68.1039 120.903C67.8326 119.539 67.9718 118.125 68.504 116.841C69.0362 115.556 69.9374 114.458 71.0937 113.685C72.25 112.912 73.6094 112.5 75 112.5C76.8648 112.5 78.6532 113.241 79.9719 114.559C81.2905 115.878 82.0313 117.666 82.0313 119.531ZM138.914 50.9766C120.894 36.1956 98.307 28.1174 75 28.1174C51.693 28.1174 29.1065 36.1956 11.086 50.9766C10.61 51.3675 10.2158 51.8483 9.92568 52.3915C9.63558 52.9348 9.45533 53.5299 9.3952 54.1428C9.33508 54.7557 9.39627 55.3745 9.57528 55.9637C9.75429 56.553 10.0476 57.1013 10.4385 57.5772C10.8294 58.0531 11.3102 58.4474 11.8534 58.7375C12.3967 59.0276 12.9918 59.2078 13.6047 59.2679C14.8425 59.3894 16.0779 59.0141 17.0391 58.2246C33.3821 44.8226 53.8645 37.4982 75 37.4982C96.1355 37.4982 116.618 44.8226 132.961 58.2246C133.922 59.0141 135.158 59.3894 136.395 59.2679C137.633 59.1465 138.772 58.5383 139.562 57.5772C140.351 56.616 140.726 55.3806 140.605 54.1428C140.483 52.9049 139.875 51.766 138.914 50.9766ZM120.117 71.9356C107.281 61.7732 91.3894 56.2438 75.0176 56.2438C58.6458 56.2438 42.7539 61.7732 29.918 71.9356C28.9436 72.7079 28.316 73.8357 28.1731 75.0708C28.0303 76.3059 28.3839 77.5471 29.1563 78.5215C29.9286 79.4959 31.0564 80.1235 32.2915 80.2664C33.5266 80.4092 34.7679 80.0556 35.7422 79.2832C46.9211 70.4346 60.7605 65.6201 75.0176 65.6201C89.2747 65.6201 103.114 70.4346 114.293 79.2832C114.775 79.6657 115.328 79.9494 115.921 80.1181C116.513 80.2869 117.132 80.3373 117.744 80.2666C118.355 80.1958 118.947 80.0053 119.485 79.7059C120.023 79.4065 120.497 79.004 120.879 78.5215C121.261 78.0391 121.545 77.486 121.714 76.894C121.883 76.3019 121.933 75.6823 121.862 75.0708C121.792 74.4592 121.601 73.8675 121.302 73.3296C121.002 72.7916 120.6 72.318 120.117 71.9356ZM101.215 92.8887C93.6008 87.3551 84.4301 84.3746 75.0176 84.3746C65.6051 84.3746 56.4344 87.3551 48.8203 92.8887C47.8149 93.6206 47.1414 94.722 46.948 95.9505C46.7546 97.179 47.0571 98.434 47.7891 99.4395C48.521 100.445 49.6224 101.118 50.8509 101.312C52.0794 101.505 53.3344 101.203 54.3399 100.471C60.3487 96.1007 67.5877 93.7467 75.0176 93.7467C82.4475 93.7467 89.6865 96.1007 95.6953 100.471C96.1932 100.833 96.7575 101.094 97.3562 101.238C97.9548 101.383 98.576 101.408 99.1843 101.312C99.7926 101.216 100.376 101.001 100.901 100.68C101.427 100.359 101.884 99.9373 102.246 99.4395C102.609 98.9416 102.869 98.3773 103.014 97.7786C103.158 97.18 103.183 96.5588 103.087 95.9505C102.991 95.3422 102.777 94.7587 102.456 94.2334C102.134 93.708 101.713 93.2511 101.215 92.8887Z" fill="#FFF4D8"/>
</svg>
